<?xml version="1.0" encoding="utf-8"?>
<!-- Generator: Adobe Illustrator 24.3.0, SVG Export Plug-In . SVG Version: 6.00 Build 0)  -->
<svg version="1.1" id="Layer_1" xmlns="http://www.w3.org/2000/svg" xmlns:xlink="http://www.w3.org/1999/xlink" x="0px" y="0px"
	 viewBox="0 0 763 175.4" style="enable-background:new 0 0 763 175.4;" xml:space="preserve">
<style type="text/css">
	.st0{fill-rule:evenodd;clip-rule:evenodd;fill:#FFFFFF;}
	.st1{fill:#FFFFFF;}
</style>
<g>
	<g>
		<g>
			<g>
				<path class="st0" d="M39.7,114.9c6.4,12.5,16,21.8,28.7,27.7c7.8,3.6,15.9,5.4,24.5,5.3c3.1,0,4.9-2.7,3.7-5.4
					c-0.8-1.7-2.4-2.1-4.1-2.3c-3.4-0.3-6.9-0.4-10.3-1.1c-12.5-2.8-22.8-9.2-30.6-19.5c-8.1-10.8-11.8-22.9-10.5-36.3
					c1.2-13.4,6.9-24.8,16.9-34c7.4-6.9,16.1-11.2,26.1-12.9c2.8-0.5,5.7-0.5,8.5-0.7s4.4-1.8,4.3-4.1c-0.1-2.4-1.8-3.8-4.7-3.7
					c-1.5,0-3,0.1-4.5,0.3c-16,1.6-29.3,8.4-39.9,20.5c-1.9,2.1-3.5,4.4-5.3,6.7c-6.6-5.6-13.3-10.9-20-16.3
					c0.1-0.3,0.2-0.5,0.3-0.7c5.1-6.3,10.9-11.7,17.6-16.2c0.9-0.6,1.4-0.4,2,0.3c1.8,2.1,3.6,4.1,5.4,6.1c1.4,1.6,2.1,1.6,3.8,0.4
					c5-3.4,10.3-6.2,16.3-7.3c2-0.4,4.1-0.7,6.1-1c1.1-0.2,2-0.6,1.9-2S74.8,17,73.6,17c-0.1,0-0.1,0-0.2,0
					C68,17.3,62.9,18.5,58,20.9c-2.7,1.3-5.3,2.8-8.1,4.3c-1.6-1.9-3.3-3.7-5.2-5.9c3.2-1.5,6.1-3,9.1-4.3c8-3.4,16.3-5.4,25-5.9
					c0.6,0,1.5,0.4,1.9,0.9c1.4,1.8,3.2,2.4,5.2,2.4c9.2,0.2,18.1,1.8,26.6,5.1c2,0.8,4,1,6,0c0.5-0.2,1.3,0,1.8,0.2
					c5.4,2.7,10.3,6.1,14.9,10c0.4,0.3,0.7,0.9,0.7,1.4c0,2,0.8,3.6,2.2,5c6.7,6.6,11.8,14.2,15.9,22.6c0.6,1.3,2.1,2.2,3.2,3.3
					c0.4,0.3,0.8,0.7,1,1.1c1.3,4.8,2.7,9.7,3.8,14.6c0.5,2.2,1.1,4.6-0.9,6.7c-0.6,0.6-0.7,1.8-0.6,2.8c0.2,9.3-1.1,18.4-4.2,27.2
					c-0.6,1.8-0.8,3.6-0.1,5.5c0.2,0.5,0.1,1.2-0.1,1.7c-2.4,5.6-5.6,10.8-9.3,15.5c-0.4,0.4-1,0.8-1.6,0.9c-2,0.2-3.4,1.4-4.8,2.7
					c-3.7,3.3-7.2,6.8-11.2,9.8c-3.6,2.7-7.7,4.6-11.4,7.1c-1,0.7-1.9,1.9-2.4,3c-0.4,1.1-0.9,1.8-2,2.1c-5.4,1.5-10.7,3-16.1,4.4
					c-0.6,0.2-1.5-0.4-2.2-0.7c-1.2-0.6-2.4-1.6-3.7-1.7c-2.1-0.3-4.4-0.2-6.5,0.1c-3.1,0.3-5.3,3-5.1,6c0.1,3,2.6,5.4,5.7,5.5
					c2.1,0,4.1-0.1,6.2-0.3c2.2-0.2,3.7-1.5,4.5-3.5c0.4-1.1,1.1-1.4,2.1-1.6c5.4-1.4,10.7-2.9,16.1-4.4c1.1-0.3,1.9-0.4,2.8,0.4
					c1.9,1.7,4.1,1.8,6.2,0.8c2.8-1.4,5.5-2.9,8.1-4.5c6.5-4.1,12.4-9,17.7-14.7c2.1-2.2,2.5-4.5,1.2-7.3c-0.3-0.6-0.3-1.5,0-2.1
					c2.9-5,5.9-10,8.9-14.9c0.3-0.4,1-0.8,1.5-0.8c3.4-0.1,5.1-1.2,6.2-4.5c3.6-10.1,5.2-20.5,5-31.2c-0.1-3.3-1.4-5-4.5-6
					c-0.5-0.2-1.2-0.7-1.3-1.2c-1.4-5.6-2.7-11.3-3.9-17c-0.1-0.6,0.2-1.5,0.6-2c2.1-2.1,2.7-4.5,1.4-7.3
					c-4.5-9.9-10.6-18.6-18.3-26.2c-2.2-2.2-4.4-2.5-7.1-1.2c-0.5,0.2-1.3,0.2-1.7-0.1c-5-3.3-9.9-6.6-14.8-9.9c-0.5-0.3-1-1-1-1.5
					c0-3.2-1.6-5-4.5-6.1C107,3.4,96.6,1.5,86,1.3c-2.3,0-4.4,0.6-5.4,2.7c-0.8,1.6-1.9,1.8-3.3,1.9c-8.4,0.5-16.4,2.6-24.1,5.7
					c-14.1,5.2-25.7,14.1-34.8,26.2C8,51.7,2.3,67.3,1.8,84.7c0,1-0.2,2.1,0,3.1c0.1,0.6,0.8,1.3,1.3,1.4c0.6,0.1,1.5-0.4,1.9-0.9
					c0.4-0.4,0.3-1.2,0.4-1.9c0.3-3.9,0.5-7.8,1-11.6c1-6.9,3-13.5,6-19.7c2.1-4.4,4.6-8.6,7-13c0.6,0.4,0.9,0.5,1.1,0.7
					c6.3,5,12.7,10.1,19,15.2c0.4,0.3,0.5,1.3,0.3,1.8c-1.1,2.6-2.4,5.2-3.4,7.8c-3.2,8.7-4.3,17.7-3.1,26.8
					c0.7,5.2,2.1,10.3,3.2,15.7"/>
				<path class="st0" d="M142.6,87.4c0,10.2-2.9,19.6-8.7,27.9c-7.4,10.7-17.6,17.5-30.3,20.4c-3.2,0.7-6.6,0.9-9.9,1.1
					c-2.5,0.2-4.2-1.5-4.3-3.7c-0.1-2.2,1.4-3.5,3.9-3.9c4.5-0.7,9.1-1,13.3-2.4c10.1-3.2,17.7-9.8,22.9-19.1
					c4.6-8.2,6.1-17,4.7-26.3c-1.9-12.2-8.1-21.7-18.2-28.5c-6.3-4.3-13.3-6.6-21-6.9c-1,0-1.9-0.1-2.9-0.3
					c-1.8-0.4-2.9-1.9-2.9-3.7s1.2-3.4,3-3.6c2-0.2,4.1-0.2,6.1,0.1c10,1.2,19,4.9,26.6,11.5c9.6,8.3,15.3,18.8,17,31.4
					C142.4,83.2,142.4,85.3,142.6,87.4z"/>
				<g>
					<path class="st0" d="M140.6,121.9c0.4,0.2,0.7,0.3,0.9,0.4c0.8,0.5,1.5,0.9,2.4,1.5c-4.8,7.5-11,13.6-18.6,18.6
						c-0.6-1-1.2-2-2-3.3C130.2,134.5,136,128.9,140.6,121.9z"/>
				</g>
				<g>
					<path class="st0" d="M144.3,60.2c1.2-0.7,2.2-1.2,3.4-1.8c4,8,6.5,16.3,6.9,25.3c-1.3,0-2.4,0-3.8,0
						C150.2,75.4,148,67.6,144.3,60.2z"/>
				</g>
				<g>
					<path class="st0" d="M154.5,91.6c-0.5,8.9-2.8,17.2-6.7,25.3c-1.1-0.6-2.2-1.2-3.1-1.7c1.2-3.5,2.6-6.8,3.5-10.2
						c0.9-3.4,1.6-6.9,2.1-10.5C150.9,91.2,150.8,91.2,154.5,91.6z"/>
				</g>
				<g>
					<path class="st0" d="M123.3,36.1c0.6-1,1.1-2,1.7-3.1c7.5,5,13.6,11,18.6,18.5c-1.1,0.6-2.1,1.2-3,1.8c-2.7-3.1-5.2-6.4-8-9.2
						C129.7,41.2,126.5,38.8,123.3,36.1z"/>
				</g>
				<g>
					<path class="st0" d="M116.7,143.2c0.5,0.9,1.1,1.8,1.8,2.9c-4.6,2.3-9.3,4.1-14.2,5.1c-0.6,0.1-1.8-0.6-2.1-1.3
						c-0.5-1,0-2,1.3-2.4C107.7,146.2,112,144.7,116.7,143.2z"/>
				</g>
				<g>
					<path class="st0" d="M118.3,28.7c-1.8,3.8-1.7,3.7-5,2.4c-3.1-1.3-6.2-2.3-9.4-3.3c-1.4-0.5-2.4-1.1-2-2.7
						c0.5-1.7,1.8-1.5,3.1-1.1C109.5,25.5,113.8,27.1,118.3,28.7z"/>
				</g>
				<g>
					<path class="st0" d="M2.2,95.8c0.4,8.9,2.8,17.2,6.7,25.3c1.1-0.6,2.2-1.2,3.1-1.7c-1.2-3.5-2.6-6.8-3.5-10.2
						c-0.9-3.4-1.6-6.9-2.1-10.5C5.8,95.4,5.9,95.4,2.2,95.8z"/>
				</g>
				<g>
					<path class="st0" d="M16.1,126.1c-0.4,0.2-0.7,0.3-0.9,0.4c-0.8,0.5-1.5,0.9-2.4,1.5c4.8,7.5,11,13.6,18.6,18.6
						c0.6-1,1.2-2,2-3.3C26.5,138.7,20.7,133.1,16.1,126.1z"/>
				</g>
			</g>
		</g>
	</g>
	<g>
		<path class="st0" d="M69.1,91.2c2,0,3.7,0,5.8,0c0,1.6,0,3.1,0,4.6c0,0.4,0.1,1,0.3,1.1c2.3,1.4,4.6,2.7,7.2,4.2
			c0-3.3,0-6.3,0-9.3c0-7.2,0-14.5,0-21.7c0-1,0.3-1.5,1.1-1.9c1.5-0.8,2.9-1.7,4.5-2.6c0,0.4,0.1,0.6,0.1,0.9c0,8.3,0,16.7,0,25
			c0,7.3,0,14.6,0,21.9c0,1.5,1,2.1,2.3,1.3c7.2-4.1,14.3-8.3,21.5-12.5c0.4-0.3,0.9-1,0.9-1.5c0.1-8.3,0.1-16.6,0-24.8
			c0-0.5-0.5-1.2-0.9-1.5c-3.7-2.2-7.4-4.4-11.2-6.5c-0.8-0.4-1.2-0.9-1.1-1.9c0.1-1.7,0-3.4,0-5.2c0.4,0.1,0.6,0.2,0.8,0.3
			c5.7,3.3,11.4,6.6,17.1,9.8c0.7,0.4,1,0.8,1,1.7c0,10.5,0,20.9,0,31.4c0,0.8-0.2,1.3-0.9,1.7c-9.1,5.2-18.2,10.5-27.3,15.7
			c-0.4,0.2-1.1,0.2-1.5,0c-1.9-1-3.7-2-5.5-3.2c-0.4-0.3-0.8-1-0.8-1.5c-0.1-2.5-0.1-4.9,0-7.4c0.1-1.2-0.4-1.8-1.4-2.3
			c-3.7-2.1-7.3-4.2-11-6.3c-0.8-0.4-1-0.9-1-1.8C69.2,96.4,69.1,93.9,69.1,91.2z"/>
		<path class="st0" d="M79.5,116c-2.1-1.2-4-2.3-6-3.4c-3.9-2.2-7.8-4.5-11.7-6.7c-1-0.6-1.3-1.2-1.3-2.3c0-10.2,0-20.4,0-30.5
			c0-1.1,0.3-1.7,1.2-2.2c8.9-5.1,17.7-10.2,26.5-15.3c0.9-0.5,1.5-0.6,2.4,0c1.6,1.1,3.3,2,5,2.9c0.7,0.4,0.9,0.9,0.9,1.7
			c0,2.5,0,5,0,7.5c0,1,0.3,1.5,1.2,2c3.7,2.1,7.4,4.3,11.2,6.4c0.7,0.4,1,0.9,1,1.7c-0.1,1.7,0,3.5,0,5.5c-2.2-1.3-4.3-2.5-6.7-3.8
			c0,2.4,0,4.5,0,6.6c0,5.1-0.1,10.2,0.2,15.3c0.1,2.1-0.6,3.3-2.5,4.1c-1.1,0.4-2.1,1.1-3.2,1.8c-0.1-0.3-0.2-0.4-0.2-0.6
			c0-4.7,0-9.4,0-14c0-5.2,0-10.4-0.1-15.6c0-0.5-0.5-1.1-0.9-1.4c-1.5-1-3.2-1.8-4.7-2.8c-0.4-0.3-0.8-1-0.9-1.5
			c-0.1-2.6,0-5.3,0-8c0-1.4-1-2-2.3-1.3c-7.2,4.1-14.4,8.3-21.6,12.5c-0.4,0.2-0.8,0.9-0.8,1.4c0,4.3,0,8.5,0,12.8
			c0,3.9,0,7.8-0.1,11.6c0,1.2,0.4,1.8,1.4,2.3c3.6,2,7.1,4.1,10.7,6.1c0.8,0.5,1.2,1,1.2,2C79.4,112.4,79.5,114.1,79.5,116z"/>
	</g>
</g>
<g>
	<g>
		<path class="st1" d="M193.3,79.3l3.4-9.1l0.8,0.3c0,0.2,0,0.4,0,0.5c0,0.7,0.4,1.4,1.3,2c1,0.6,2.2,1.1,3.8,1.6s3.1,0.6,4.6,0.6
			c2.4,0,4.1-0.5,5.2-1.6c0.5-0.5,0.9-1.2,1.1-1.9c0.2-0.7,0.3-1.9,0.3-3.4V47.4c0-0.5-0.1-1-0.4-1.2c-0.2-0.3-0.7-0.5-1.3-0.7v-0.8
			h11.3v0.8c-0.6,0.2-1.1,0.4-1.3,0.7s-0.4,0.7-0.4,1.2v21.2c0,3.5-0.5,6-1.5,7.6s-2.5,2.9-4.5,3.8s-4.4,1.3-7,1.3
			c-1.5,0-2.9-0.1-4-0.3c-1.1-0.2-3-0.7-5.5-1.4c-1.6-0.5-2.7-0.7-3.4-0.7c-0.6,0-1.1,0.2-1.6,0.7L193.3,79.3z"/>
		<path class="st1" d="M250.8,73.3h-13.6l-1.5,3.2c-0.4,0.8-0.6,1.4-0.6,1.8c0,0.8,0.6,1.4,1.7,1.6v0.7h-10.9v-0.7
			c0.7-0.1,1.2-0.3,1.5-0.6c0.3-0.3,0.7-0.9,1.1-1.8l10.8-21.9c0.4-0.8,0.6-1.5,0.6-2.2s-0.5-1.3-1.5-1.7V51h11.5v0.7
			c-1,0.4-1.5,1-1.5,1.8c0,0.6,0.2,1.3,0.7,2.1l11.2,21.2c0.6,1.2,1.1,1.9,1.5,2.2c0.4,0.3,0.9,0.6,1.6,0.7v0.7h-12.1v-0.7
			c1.1-0.2,1.7-0.7,1.7-1.6c0-0.5-0.2-1.2-0.7-2L250.8,73.3z M248.7,69.2l-4.8-9.5l-4.6,9.5H248.7z"/>
		<path class="st1" d="M274.7,68.6V78c0,0.5,0.1,1,0.4,1.3c0.2,0.3,0.7,0.5,1.3,0.7v0.7h-10.5V80c0.6-0.2,1.1-0.4,1.3-0.7
			c0.3-0.3,0.4-0.7,0.4-1.3V53.8c0-0.5-0.1-1-0.4-1.2c-0.2-0.3-0.7-0.5-1.3-0.7v-0.7h19.4c2.5,0,4.4,0.1,5.8,0.4
			c1.3,0.3,2.5,0.7,3.5,1.4c2.1,1.4,3.2,3.7,3.2,6.8c0,2.4-0.7,4.3-2,5.6s-3.4,2.3-6.4,2.9l5.6,7.8c1,1.4,1.8,2.4,2.4,2.9
			s1.3,0.8,2.1,1v0.7h-12.4V80c0.9-0.2,1.4-0.6,1.4-1.2c0-0.4-0.3-1-0.8-1.8l-5.9-8.5L274.7,68.6L274.7,68.6z M274.7,63.2h10.7
			c1.6,0,2.8-0.2,3.6-0.5c1.1-0.5,1.6-1.4,1.6-2.8c0-1.2-0.4-2.1-1.1-2.6c-0.8-0.5-2.1-0.7-4.1-0.7h-10.7V63.2z"/>
		<path class="st1" d="M317.1,71.3l7.2-15.6c0.4-0.9,0.6-1.6,0.6-2c0-0.9-0.6-1.5-1.7-1.8v-0.7h11.4v0.7c-0.7,0.2-1.2,0.5-1.5,0.8
			s-0.7,1-1.2,2.1l-10.4,21.8c-0.4,0.8-0.6,1.4-0.6,1.8c0,0.9,0.6,1.4,1.7,1.7v0.7h-11.5v-0.7c1.1-0.2,1.7-0.8,1.7-1.7
			c0-0.4-0.2-1-0.6-1.8l-10.3-21.8c-0.5-1.1-0.9-1.7-1.2-2.1c-0.3-0.3-0.8-0.6-1.5-0.8v-0.7h11.9v0.7c-1.1,0.4-1.7,1-1.7,1.8
			c0,0.4,0.2,1.1,0.7,2L317.1,71.3z"/>
		<path class="st1" d="M345.8,53.8V78c0,0.5,0.1,1,0.4,1.3c0.2,0.3,0.7,0.5,1.3,0.7v0.7H337V80c0.6-0.2,1.1-0.4,1.3-0.7
			c0.3-0.3,0.4-0.7,0.4-1.3V53.8c0-0.5-0.1-1-0.4-1.2c-0.2-0.3-0.7-0.5-1.3-0.7v-0.7h10.5v0.7c-0.6,0.2-1.1,0.4-1.3,0.7
			C345.9,52.9,345.8,53.3,345.8,53.8z"/>
		<path class="st1" d="M381.1,53.8l-3.6,6.9l-0.6-0.3c0-0.6-0.2-1-0.6-1.4c-1-0.9-2.5-1.6-4.4-2.2c-2-0.6-3.9-0.9-5.9-0.9
			c-1.7,0-3.2,0.2-4.5,0.7c-1.9,0.7-2.9,1.7-2.9,3c0,0.9,0.5,1.5,1.4,1.8c0.9,0.4,2.7,0.6,5.3,0.9l4.2,0.3c3.6,0.3,6.4,1,8.3,2.1
			c1.1,0.6,1.9,1.5,2.6,2.5c0.9,1.3,1.3,2.8,1.3,4.5c0,3-1.4,5.4-4.1,7.1c-2.6,1.7-6.1,2.5-10.5,2.5c-4.5,0-8.8-0.9-12.9-2.8
			c-0.3-0.1-0.5-0.2-0.7-0.2c-0.4,0-0.7,0.2-1,0.6l-0.7-0.3l3-7.2l0.7,0.3c0,0.1,0,0.2,0,0.2c0,0.5,0.2,0.8,0.5,1.2
			c0.9,0.8,2.4,1.4,4.6,2s4.3,0.9,6.4,0.9c1.9,0,3.5-0.2,5-0.7c1.8-0.6,2.7-1.6,2.7-2.9c0-1.1-0.6-1.8-1.9-2.2
			c-0.8-0.3-2.4-0.5-4.6-0.7l-4.1-0.3c-2.2-0.2-3.9-0.4-5.1-0.7c-1.2-0.3-2.2-0.7-3.1-1.2c-1.1-0.7-2-1.7-2.6-2.9
			c-0.6-1.2-1-2.5-1-4c0-3.2,1.4-5.7,4.2-7.4c2.5-1.5,5.7-2.3,9.4-2.3c2,0,3.9,0.2,5.7,0.7c1.8,0.4,3.8,1.2,6.3,2.4
			c0.7,0.3,1.2,0.5,1.5,0.5s0.6-0.2,1.1-0.6L381.1,53.8z"/>
		<path class="st1" d="M419.1,50.6v27.3c0,0.5,0.1,1,0.4,1.2c0.2,0.3,0.7,0.5,1.3,0.7v0.8h-11.3v-0.8c0.6-0.2,1.1-0.4,1.3-0.7
			c0.2-0.3,0.4-0.7,0.4-1.2V50.6h-11.1c-0.5,0-0.9,0.1-1.2,0.4c-0.3,0.2-0.5,0.7-0.7,1.3h-0.8V43h0.8c0.2,0.6,0.4,1.1,0.7,1.3
			c0.3,0.2,0.7,0.4,1.2,0.4h30.2c0.5,0,1-0.1,1.2-0.4c0.3-0.2,0.5-0.7,0.7-1.3h0.8v9.3h-0.8c-0.2-0.6-0.4-1.1-0.7-1.3
			c-0.3-0.2-0.7-0.4-1.2-0.4H419.1z"/>
		<path class="st1" d="M445.4,68.1v7.2h18.8c0.5,0,1-0.1,1.3-0.4c0.3-0.2,0.5-0.7,0.7-1.3h0.7v8.7h-0.7c-0.2-0.6-0.4-1.1-0.7-1.3
			c-0.3-0.3-0.7-0.4-1.3-0.4h-27.6v-0.7c0.6-0.2,1.1-0.4,1.3-0.7c0.3-0.3,0.4-0.7,0.4-1.3V53.8c0-0.5-0.1-1-0.4-1.2
			c-0.2-0.3-0.7-0.5-1.3-0.7v-0.7h26.7c0.6,0,1-0.1,1.3-0.4c0.3-0.2,0.5-0.7,0.7-1.3h0.7v8.7h-0.7c-0.2-0.6-0.4-1.1-0.7-1.3
			c-0.3-0.2-0.7-0.4-1.3-0.4h-18V63h11.1c0.5,0,1-0.1,1.3-0.4c0.3-0.2,0.5-0.7,0.7-1.3h0.7v8.5h-0.7c-0.2-0.6-0.4-1.1-0.7-1.3
			c-0.3-0.3-0.7-0.4-1.3-0.4H445.4z"/>
		<path class="st1" d="M500.3,70.1l4.5,6.5l-0.6,0.4c-0.4-0.3-0.8-0.4-1-0.4c-0.3,0-1,0.3-2.1,1c-2.4,1.4-4.5,2.4-6.4,2.9
			c-1.8,0.5-4,0.8-6.4,0.8c-4.8,0-8.8-1.2-11.8-3.5c-1.7-1.3-3.1-3-4.1-5c-1.1-2.1-1.6-4.5-1.6-7c0-3.5,1-6.5,3-9.2
			c3.2-4.2,8-6.2,14.5-6.2c2.4,0,4.6,0.3,6.4,0.8c1.9,0.5,4,1.5,6.4,2.9c1.1,0.7,1.8,1,2.1,1c0.2,0,0.6-0.2,1-0.4l0.6,0.5l-4.5,6.5
			l-0.6-0.4c0-0.2,0-0.3,0.1-0.4c0-0.2,0-0.3,0-0.3c0-0.9-1.2-1.8-3.6-2.9c-2.3-1-4.5-1.6-6.8-1.6c-3.2,0-5.8,0.8-7.9,2.5
			c-2.4,1.9-3.6,4.3-3.6,7.3c0,3,1.2,5.4,3.6,7.3c2.1,1.7,4.7,2.5,7.9,2.5c2.5,0,5-0.6,7.5-1.9c1.9-1,2.9-1.8,2.9-2.6
			c0,0,0-0.3-0.1-0.7L500.3,70.1z"/>
		<path class="st1" d="M533.3,67.8h-16.5V78c0,0.5,0.1,1,0.4,1.3s0.7,0.5,1.3,0.7v0.7H508V80c0.6-0.2,1.1-0.4,1.3-0.7
			c0.3-0.3,0.4-0.7,0.4-1.3V53.8c0-0.5-0.1-1-0.4-1.2s-0.7-0.5-1.3-0.7v-0.7h10.5v0.7c-0.6,0.2-1.1,0.4-1.3,0.7s-0.4,0.7-0.4,1.3
			v8.6h16.5v-8.7c0-0.5-0.1-1-0.4-1.2c-0.2-0.3-0.7-0.5-1.3-0.7v-0.7h10.5v0.7c-0.6,0.2-1.1,0.4-1.3,0.7s-0.4,0.7-0.4,1.3v24.2
			c0,0.5,0.1,1,0.4,1.3c0.2,0.3,0.7,0.5,1.3,0.7v0.7h-10.5v-0.7c0.6-0.2,1.1-0.4,1.3-0.7c0.3-0.3,0.4-0.7,0.4-1.3V67.8z"/>
		<path class="st1" d="M555.4,61.2V78c0,0.5,0.1,1,0.4,1.3c0.3,0.3,0.7,0.5,1.3,0.7v0.7h-9.8V80c0.6-0.2,1.1-0.4,1.3-0.7
			c0.3-0.3,0.4-0.7,0.4-1.3V53.8c0-0.5-0.1-1-0.4-1.2s-0.7-0.5-1.3-0.7v-0.7h11.4v0.7c-0.8,0.2-1.2,0.5-1.2,1c0,0.4,0.3,0.9,0.8,1.5
			l15.9,15.7V53.8c0-0.5-0.1-1-0.4-1.3c-0.2-0.3-0.7-0.5-1.3-0.7v-0.7h9.8v0.7c-0.6,0.2-1.1,0.4-1.3,0.7s-0.4,0.7-0.4,1.3V78
			c0,0.5,0.1,1,0.4,1.3c0.2,0.3,0.7,0.5,1.3,0.7v0.7h-10.6V80c0.8-0.2,1.2-0.5,1.2-1c0-0.2-0.1-0.5-0.3-0.8s-0.7-0.8-1.5-1.5
			L555.4,61.2z"/>
		<path class="st1" d="M604.1,50.5c4.7,0,8.6,1.2,11.8,3.6c3.8,2.9,5.6,6.9,5.6,12.1c0,4.8-1.9,8.7-5.6,11.6
			c-3.1,2.4-7,3.6-11.7,3.6s-8.6-1.2-11.7-3.6c-3.8-2.9-5.7-6.8-5.7-11.8c0-5.1,1.9-9,5.7-11.8C595.6,51.7,599.5,50.5,604.1,50.5z
			 M604.2,56.1c-3.1,0-5.5,1-7.5,2.9c-1.8,1.8-2.7,4.1-2.7,6.9c0,2.7,0.9,5,2.7,6.9c1.9,2,4.4,3,7.5,3s5.5-1,7.5-3
			c1.8-1.8,2.7-4.1,2.7-6.7c0-2.9-0.9-5.2-2.7-7C609.7,57.1,607.2,56.1,604.2,56.1z"/>
		<path class="st1" d="M634.8,75.3h16.6c0.6,0,1-0.1,1.3-0.4c0.3-0.2,0.5-0.7,0.7-1.3h0.7v8.7h-0.7c-0.2-0.6-0.4-1.1-0.7-1.3
			c-0.3-0.2-0.7-0.4-1.3-0.4h-25.3v-0.7c0.6-0.2,1.1-0.4,1.3-0.7c0.3-0.3,0.4-0.7,0.4-1.3V53.8c0-0.5-0.1-1-0.4-1.2
			s-0.7-0.5-1.3-0.7v-0.7h10.5v0.7c-0.6,0.2-1.1,0.4-1.3,0.7s-0.4,0.7-0.4,1.3L634.8,75.3L634.8,75.3z"/>
		<path class="st1" d="M679.5,73.3h-13.6l-1.5,3.2c-0.4,0.8-0.6,1.4-0.6,1.8c0,0.8,0.6,1.4,1.7,1.6v0.7h-10.9v-0.7
			c0.7-0.1,1.2-0.3,1.5-0.6c0.3-0.3,0.7-0.9,1.1-1.8l10.9-21.8c0.4-0.8,0.6-1.5,0.6-2.2s-0.5-1.3-1.5-1.7v-0.7h11.5v0.7
			c-1,0.4-1.5,1-1.5,1.8c0,0.6,0.2,1.3,0.7,2.1L689.1,77c0.6,1.2,1.1,1.9,1.5,2.2c0.4,0.3,0.9,0.6,1.6,0.7v0.7h-12.1v-0.7
			c1.1-0.2,1.7-0.7,1.7-1.6c0-0.5-0.2-1.2-0.7-2L679.5,73.3z M677.4,69.2l-4.8-9.5l-4.6,9.5H677.4z"/>
		<path class="st1" d="M721.8,64.8c1.5,0.7,2.5,1.3,3.2,2c1.3,1.3,1.9,3,1.9,5.1c0,2.9-1.1,5.1-3.3,6.7c-1.9,1.4-4.6,2.1-8,2.1
			h-21.1V80c0.6-0.2,1.1-0.4,1.3-0.7c0.3-0.3,0.4-0.7,0.4-1.3V53.8c0-0.5-0.1-1-0.4-1.2s-0.7-0.5-1.3-0.7v-0.7h20.7
			c3.6,0,6.3,0.7,8,2c1.8,1.4,2.7,3.3,2.7,5.7c0,1.4-0.3,2.6-0.9,3.5C724.5,63.1,723.4,64,721.8,64.8z M703.4,62.2h10.8
			c1.7,0,2.9-0.2,3.6-0.6c0.7-0.4,1.1-1.2,1.1-2.2s-0.3-1.8-1-2.2s-1.9-0.6-3.6-0.6h-10.8L703.4,62.2L703.4,62.2z M703.4,75.3h11
			c3.6,0,5.3-1.3,5.3-3.9s-1.8-3.9-5.3-3.9h-11V75.3z"/>
		<path class="st1" d="M759.8,53.8l-3.6,6.9l-0.6-0.3c0-0.6-0.2-1-0.6-1.4c-1-0.9-2.5-1.6-4.4-2.2c-2-0.6-3.9-0.9-5.9-0.9
			c-1.7,0-3.2,0.2-4.5,0.7c-1.9,0.7-2.9,1.7-2.9,3c0,0.9,0.5,1.5,1.4,1.8c0.9,0.4,2.7,0.6,5.3,0.9l4.2,0.3c3.6,0.3,6.4,1,8.3,2.1
			c1.1,0.6,1.9,1.5,2.6,2.5c0.9,1.3,1.3,2.8,1.3,4.5c0,3-1.4,5.4-4.1,7.1c-2.6,1.7-6.1,2.5-10.5,2.5c-4.5,0-8.8-0.9-12.9-2.8
			c-0.3-0.1-0.5-0.2-0.7-0.2c-0.4,0-0.7,0.2-1,0.6l-0.7-0.3l3-7.2l0.7,0.3c0,0.1,0,0.2,0,0.2c0,0.5,0.2,0.8,0.5,1.2
			c0.9,0.8,2.4,1.4,4.6,2c2.2,0.6,4.3,0.9,6.4,0.9c1.9,0,3.5-0.2,5-0.7c1.8-0.6,2.7-1.6,2.7-2.9c0-1.1-0.6-1.8-1.9-2.2
			c-0.8-0.3-2.4-0.5-4.6-0.7l-4.1-0.3c-2.2-0.2-3.9-0.4-5.1-0.7c-1.2-0.3-2.2-0.7-3.1-1.2c-1.1-0.7-2-1.7-2.6-2.9
			c-0.6-1.2-1-2.5-1-4c0-3.2,1.4-5.7,4.2-7.4c2.5-1.5,5.7-2.3,9.4-2.3c2,0,3.9,0.2,5.7,0.7c1.8,0.4,3.8,1.2,6.3,2.4
			c0.7,0.3,1.2,0.5,1.5,0.5s0.6-0.2,1.1-0.6L759.8,53.8z"/>
	</g>
	<g>
		<path class="st1" d="M206.8,114.5l-10.3-15.7h4.2l7.8,12.5l8-12.5h3.9l-10.3,15.7v11.9h-3.3L206.8,114.5L206.8,114.5z"/>
		<path class="st1" d="M227.4,107.7c5.6,0,9.8,3.9,9.8,9.6s-4.1,9.6-9.8,9.6c-5.6,0-9.8-3.9-9.8-9.6
			C217.6,111.6,221.7,107.7,227.4,107.7z M227.4,124.1c3.9,0,6.5-3,6.5-6.8s-2.5-6.8-6.5-6.8c-3.9,0-6.5,3-6.5,6.8
			C220.9,121.2,223.4,124.1,227.4,124.1z"/>
		<path class="st1" d="M257.8,122.1c0,1.7,0.2,3.1,0.2,4.3h-2.9c0-1-0.1-2-0.1-3h-0.1c-0.8,1.8-3.1,3.5-6.1,3.5c-4.8,0-7-3-7-7.5
			v-11.3h3v11c0,3,1.3,5,4.2,5c3.9,0,5.7-2.9,5.7-7v-8.9h3v13.9H257.8z"/>
		<path class="st1" d="M293.6,101.8h-9.1v24.6h-3.4v-24.6H272v-3h21.6V101.8z"/>
		<path class="st1" d="M296.9,96.9h3v13.8h0.1c0.8-1.4,3-3,5.9-3c4.8,0,7,3,7,7.5v11.3h-3v-11c0-3-1.3-5-4.2-5c-3.9,0-5.7,2.9-5.7,7
			v8.9h-3L296.9,96.9L296.9,96.9z"/>
		<path class="st1" d="M320.4,98.8c1.3,0,2.2,1,2.2,2.2c0,1.3-0.9,2.2-2.2,2.2s-2.2-0.9-2.2-2.2C318.2,99.8,319.1,98.8,320.4,98.8z
			 M318.9,108.2h3v18.3h-3V108.2z"/>
		<path class="st1" d="M328,112.5c0-1.7-0.2-3.1-0.2-4.3h2.9c0,1,0.1,2,0.1,3h0.1c0.8-1.8,3.1-3.5,6.1-3.5c4.8,0,7,3,7,7.5v11.3h-3
			v-11c0-3-1.3-5-4.2-5c-3.9,0-5.7,2.9-5.7,7v8.9h-3L328,112.5L328,112.5z"/>
		<path class="st1" d="M349.7,96.9h3v19.3l8.3-8h4.3l-8.8,8.3l9.7,10h-4.5l-9.1-9.6v9.6h-3V96.9H349.7z"/>
		<path class="st1" d="M371.4,131.9h-3l2.7-9.4h3.6L371.4,131.9z"/>
		<path class="st1" d="M388.3,98.8h3.6l6.3,23h0.1l6.8-23h3.7l6.8,23h0.1l6.4-23h3.4l-8.1,27.7h-3.6l-6.8-23.4h-0.1l-6.9,23.4h-3.6
			L388.3,98.8z"/>
		<path class="st1" d="M443.1,123.1c-2.1,2.8-4.7,3.8-8.1,3.8c-5.7,0-9.3-4.3-9.3-9.6c0-5.7,4-9.6,9.4-9.6c5.2,0,8.7,3.5,8.7,9.6v1
			H429c0.2,3.2,2.7,5.9,6,5.9c2.6,0,4.4-0.9,5.8-2.8L443.1,123.1z M440.5,115.7c-0.1-3.1-2.1-5.2-5.5-5.2s-5.6,2.1-6,5.2H440.5z"/>
		<path class="st1" d="M479.3,104.5c-1.6-2.2-4.3-3.4-6.9-3.4c-6.2,0-10.6,5.4-10.6,11.5c0,6.4,4.3,11.5,10.6,11.5
			c3.4,0,6.1-1.4,8-3.9l2.5,2.1c-2.5,3.3-6.1,4.8-10.5,4.8c-7.9,0-14.1-6.1-14.1-14.5c0-8.1,5.9-14.5,14.1-14.5
			c3.8,0,7.4,1.3,9.8,4.3L479.3,104.5z"/>
		<path class="st1" d="M486.8,112.5c0-1.7-0.2-3.1-0.2-4.3h2.9c0,1,0.1,2,0.1,3h0.1c0.8-1.8,3.1-3.5,6.1-3.5c0.4,0,0.8,0,1.3,0.2
			l-0.2,3.1c-0.5-0.2-1.1-0.2-1.6-0.2c-3.7,0-5.4,2.6-5.4,6.8v8.9h-3L486.8,112.5L486.8,112.5z"/>
		<path class="st1" d="M516.2,123.1c-2.2,2.8-4.7,3.8-8.1,3.8c-5.7,0-9.3-4.3-9.3-9.6c0-5.7,4-9.6,9.4-9.6c5.2,0,8.7,3.5,8.7,9.6v1
			h-14.8c0.2,3.2,2.7,5.9,6,5.9c2.6,0,4.4-0.9,5.8-2.8L516.2,123.1z M513.6,115.7c-0.1-3.1-2.2-5.2-5.5-5.2c-3.4,0-5.6,2.1-6,5.2
			H513.6z"/>
		<path class="st1" d="M521.4,110.5c1.9-1.9,4.6-2.8,7.3-2.8c5.4,0,7.7,2.6,7.7,7.7v7.9c0,1.1,0.1,2.2,0.3,3.2h-2.9
			c-0.2-0.8-0.2-2-0.2-2.7h-0.1c-1.2,1.9-3.2,3.2-6,3.2c-3.7,0-6.8-1.9-6.8-5.4c0-6.1,7-6.4,11.5-6.4h1.2v-0.5c0-2.7-1.7-4-4.5-4
			c-2,0-4,0.7-5.4,2L521.4,110.5z M530.2,117.7c-3.9,0-6.4,1.1-6.4,3.5c0,2.3,1.7,3.2,4,3.2c3.5,0,5.3-2.5,5.4-5.5v-1.2H530.2z"/>
		<path class="st1" d="M551.9,110.8h-5.4v9.1c0,2.3,0,4.2,2.7,4.2c0.9,0,1.9-0.2,2.7-0.6l0.1,2.8c-1.1,0.5-2.4,0.7-3.6,0.7
			c-4.3,0-5-2.3-5-6.1v-10h-4v-2.6h4v-5.2h3v5.2h5.4L551.9,110.8L551.9,110.8z"/>
		<path class="st1" d="M572,123.1c-2.1,2.8-4.7,3.8-8.1,3.8c-5.7,0-9.3-4.3-9.3-9.6c0-5.7,4-9.6,9.4-9.6c5.2,0,8.7,3.5,8.7,9.6v1
			h-14.8c0.2,3.2,2.7,5.9,6,5.9c2.6,0,4.4-0.9,5.8-2.8L572,123.1z M569.4,115.7c-0.1-3.1-2.1-5.2-5.5-5.2s-5.6,2.1-6,5.2H569.4z"/>
	</g>
</g>
</svg>
